PERFORMER "Ajattara"
TITLE "Kalmanto"
REM DATE 2007
REM GENRE "Black Metal"
FILE "01 - Ilkitie.flac" WAVE
  TRACK 01 AUDIO
    PERFORMER "Ajattara"
    TITLE "Ilkitie"
    INDEX 01 00:00:00
FILE "02 - Turhuuden takila.flac" WAVE
  TRACK 02 AUDIO
    PERFORMER "Ajattara"
    TITLE "Turhuuden takila"
    INDEX 01 00:00:00
  TRACK 03 AUDIO
    PERFORMER "Ajattara"
    TITLE "Madot"
    INDEX 00 03:07:40
FILE "03 - Madot.flac" WAVE
    INDEX 01 00:00:00
FILE "04 - ...Putoan.flac" WAVE
  TRACK 04 AUDIO
    PERFORMER "Ajattara"
    TITLE "...Putoan"
    INDEX 01 00:00:00
FILE "05 - Harhojen virta.flac" WAVE
  TRACK 05 AUDIO
    PERFORMER "Ajattara"
    TITLE "Harhojen virta"
    INDEX 01 00:00:00
FILE "06 - Suruntuoja.flac" WAVE
  TRACK 06 AUDIO
    PERFORMER "Ajattara"
    TITLE "Suruntuoja"
    INDEX 01 00:00:00
FILE "07 - Naimalaulu.flac" WAVE
  TRACK 07 AUDIO
    PERFORMER "Ajattara"
    TITLE "Naimalaulu"
    INDEX 01 00:00:00
FILE "08 - Alttarilla aamutahden.flac" WAVE
  TRACK 08 AUDIO
    PERFORMER "Ajattara"
    TITLE "Alttarilla aamutähden"
    INDEX 01 00:00:00
FILE "09 - Kalmanto.flac" WAVE
  TRACK 09 AUDIO
    PERFORMER "Ajattara"
    TITLE "Kalmanto"
    INDEX 01 00:00:00
